<svg xmlns="http://www.w3.org/2000/svg" xmlns:xlink="http://www.w3.org/1999/xlink" width="144" height="144" viewBox="0 0 144 144"><defs><filter id="a" x="0" y="0" width="144" height="144" filterUnits="userSpaceOnUse"><feOffset dy="4" input="SourceAlpha"/><feGaussianBlur stdDeviation="4" result="b"/><feFlood flood-color="#4d4d4d" flood-opacity="0.239"/><feComposite operator="in" in2="b"/><feComposite in="SourceGraphic"/></filter></defs><g transform="translate(336 -897)"><g transform="matrix(1, 0, 0, 1, -336, 897)" filter="url(#a)"><circle cx="60" cy="60" r="60" transform="translate(12 8)" fill="#fff"/></g><g transform="translate(-368.206 868)"><g transform="translate(77.034 49)"><path d="M241.493,150.355a40.889,40.889,0,0,1-46.426,40.489,42.474,42.474,0,0,0,11.594-80.905A40.858,40.858,0,0,1,241.493,150.355Z" transform="translate(-175.321 -95.221)" fill="#004487"/><path d="M167.623,162.05c.136-1.4.208-2.828.208-4.271a42.389,42.389,0,0,0-54.158-40.8,40.678,40.678,0,0,1,31.393-8.429,42.551,42.551,0,0,1,22.557,53.5Z" transform="translate(-113.673 -93.677)" fill="#5fae32"/><path d="M167.623,162.05c.136-1.4.208-2.828.208-4.271a42.389,42.389,0,0,0-54.158-40.8,40.678,40.678,0,0,1,31.393-8.429,42.551,42.551,0,0,1,22.557,53.5Z" transform="translate(-113.673 -93.677)" fill="#13a0df"/><circle cx="8.013" cy="8.013" r="8.013" transform="translate(20.568)" fill="#004487"/></g><g transform="translate(65.206 79.239)"><path d="M67.875,251.255a27.725,27.725,0,0,0,40.195,11.352A28.8,28.8,0,0,1,77.5,216.384,27.7,27.7,0,0,0,67.875,251.255Z" transform="translate(-65.206 -205.927)" fill="#7f5194"/><path d="M95.659,241.2c-.49-.82-.948-1.673-1.366-2.557a28.808,28.808,0,0,1,21.43-40.744A27.689,27.689,0,0,0,94,201.852,28.82,28.82,0,0,0,95.659,241.2Z" transform="translate(-81.701 -191.395)" fill="#5fae32"/><path d="M95.659,241.2c-.49-.82-.948-1.673-1.366-2.557a28.808,28.808,0,0,1,21.43-40.744A27.689,27.689,0,0,0,94,201.852,28.82,28.82,0,0,0,95.659,241.2Z" transform="translate(-81.701 -191.395)" fill="#b16ba5"/><circle cx="5.433" cy="5.433" r="5.433" transform="translate(6.609)" fill="#7f5194"/></g><g transform="translate(86.541 94.25)"><path d="M175.452,280.287a16.594,16.594,0,0,1-22.632,10.619,17.237,17.237,0,0,0,13.55-30.275A16.582,16.582,0,0,1,175.452,280.287Z" transform="translate(-152.82 -254.387)" fill="#2a753e"/><path d="M170.258,279.41c.21-.532.4-1.08.558-1.643a17.243,17.243,0,0,0-16.624-21.975,16.575,16.575,0,0,1,13.215.22,17.25,17.25,0,0,1,2.851,23.4Z" transform="translate(-153.857 -249.769)" fill="#5fae32"/><path d="M170.258,279.41c.21-.532.4-1.08.558-1.643a17.243,17.243,0,0,0-16.624-21.975,16.575,16.575,0,0,1,13.215.22,17.25,17.25,0,0,1,2.851,23.4Z" transform="translate(-153.857 -249.769)" fill="#6eb550"/><circle cx="3.252" cy="3.252" r="3.252" transform="translate(9.96)" fill="#2a753e"/></g></g></g></svg>