<svg xmlns="http://www.w3.org/2000/svg" width="24" height="24" viewBox="0 0 24 24"><defs><style>.a{fill:none;}.b{fill:#fff;}</style></defs><g transform="translate(-673 -605)"><rect class="a" width="24" height="24" transform="translate(673 605)"/><path class="b" d="M15.5,7.375A1.12,1.12,0,0,0,16.625,8.5H23V23.875A1.12,1.12,0,0,1,21.875,25H6.125A1.12,1.12,0,0,1,5,23.875V2.125A1.12,1.12,0,0,1,6.125,1H15.5Zm3.563,9.891a.65.65,0,0,0,.188-.8.7.7,0,0,0-.7-.469H15.5V12.25a.722.722,0,0,0-.75-.75h-1.5a.722.722,0,0,0-.75.75V16H9.453a.7.7,0,0,0-.7.469.65.65,0,0,0,.188.8l4.5,4.5a.792.792,0,0,0,1.125,0ZM22.672,5.922a1.085,1.085,0,0,1,.328.8V7H17V1h.281a1.085,1.085,0,0,1,.8.328Z" transform="translate(671 604)"/></g></svg>